<?xml version="1.0" encoding="UTF-8"?><svg id="Ebene_1" xmlns="http://www.w3.org/2000/svg" viewBox="0 0 43.1 41.21"><defs><style>.cls-1{fill:#cd2263;}</style></defs><path class="cls-1" d="M11.05,35.11l-6.2-1.25c-.37-.07-.68-.26-.93-.58-.25-.32-.34-.68-.28-1.08l.7-6L.4,21.61c-.27-.27-.4-.6-.4-1s.13-.73,.4-1l3.95-4.55-.7-6c-.07-.4,.03-.76,.28-1.07,.25-.32,.56-.51,.92-.58l6.2-1.25L14.15,.81c.2-.33,.48-.57,.85-.7,.37-.13,.73-.12,1.1,.05l5.45,2.55L27,.16c.37-.17,.74-.2,1.12-.1,.38,.1,.66,.33,.83,.7l3.15,5.4,6.15,1.25c.37,.07,.67,.26,.92,.57s.34,.67,.28,1.07l-.7,6,3.95,4.55c.27,.27,.4,.6,.4,1s-.13,.73-.4,1l-3.95,4.6,.7,6c.07,.4-.03,.76-.28,1.08-.25,.32-.56,.51-.92,.58l-6.15,1.25-3.15,5.35c-.17,.37-.44,.6-.83,.7-.38,.1-.76,.07-1.12-.1l-5.45-2.55-5.45,2.55c-.37,.17-.73,.18-1.1,.05-.37-.13-.65-.37-.85-.7l-3.1-5.3Zm7.3-8.9c.3,.3,.65,.45,1.05,.45s.75-.15,1.05-.45l9.25-9.15c.27-.27,.39-.61,.38-1.02-.02-.42-.18-.77-.47-1.08-.3-.3-.66-.44-1.08-.42-.42,.02-.79,.17-1.12,.48l-8,7.95-3.65-3.85c-.3-.33-.67-.49-1.12-.48-.45,.02-.82,.19-1.12,.52-.3,.33-.46,.72-.48,1.15-.02,.43,.14,.8,.48,1.1l4.85,4.8Zm-2.15,11.45l5.35-2.25,5.5,2.25,3.35-5,5.85-1.5-.6-5.95,4.05-4.6-4.05-4.7,.6-5.95-5.85-1.4-3.45-5-5.4,2.25-5.5-2.25-3.35,5-5.85,1.4,.6,5.95-4.05,4.7,4.05,4.6-.6,6.05,5.85,1.4,3.5,5Z"/></svg>