<?xml version="1.0" encoding="UTF-8"?><svg id="Ebene_1" xmlns="http://www.w3.org/2000/svg" viewBox="0 0 44 34.35"><defs><style>.cls-1{fill:#cd2263;}</style></defs><path class="cls-1" d="M3.5,34.35c-.97,0-1.79-.34-2.47-1.03-.68-.68-1.03-1.51-1.03-2.47s.34-1.79,1.03-2.47c.68-.68,1.51-1.03,2.47-1.03,.17,0,.33,0,.5,.03s.38,.06,.65,.12l10-10c-.07-.27-.11-.48-.12-.65-.02-.17-.02-.33-.02-.5,0-.97,.34-1.79,1.02-2.48s1.51-1.03,2.48-1.03,1.79,.34,2.48,1.02c.68,.68,1.02,1.51,1.02,2.48,0,.07-.05,.45-.15,1.15l5.5,5.5c.27-.07,.48-.11,.65-.12s.33-.02,.5-.02,.33,0,.5,.02,.38,.06,.65,.12l8-8c-.07-.27-.11-.48-.12-.65s-.03-.33-.03-.5c0-.97,.34-1.79,1.03-2.48,.68-.68,1.51-1.02,2.47-1.02s1.79,.34,2.47,1.02c.68,.68,1.03,1.51,1.03,2.48s-.34,1.79-1.03,2.48c-.68,.68-1.51,1.02-2.47,1.02-.17,0-.33,0-.5-.02s-.38-.06-.65-.12l-8,8c.07,.27,.11,.48,.12,.65,.02,.17,.03,.33,.03,.5,0,.97-.34,1.79-1.03,2.47-.68,.68-1.51,1.03-2.47,1.03s-1.79-.34-2.48-1.03c-.68-.68-1.02-1.51-1.02-2.47,0-.17,0-.33,.02-.5,.02-.17,.06-.38,.12-.65l-5.5-5.5c-.27,.07-.48,.11-.65,.12s-.33,.02-.5,.02c-.07,0-.45-.05-1.15-.15L6.85,29.7c.07,.27,.11,.48,.12,.65s.02,.33,.02,.5c0,.97-.34,1.79-1.03,2.47-.68,.68-1.51,1.03-2.47,1.03ZM6,12.25l-1-2.2-2.2-1,2.2-1,1-2.2,1,2.2,2.2,1-2.2,1-1,2.2Zm22-2.55l-1.55-3.3-3.3-1.55,3.3-1.55,1.55-3.3,1.55,3.3,3.3,1.55-3.3,1.55-1.55,3.3Z"/></svg>