<?xml version="1.0" encoding="UTF-8"?><svg id="Ebene_1" xmlns="http://www.w3.org/2000/svg" viewBox="0 0 38.85 39"><defs><style>.cls-1{fill:#cd2263;}</style></defs><path class="cls-1" d="M11.8,39H3c-.8,0-1.5-.3-2.1-.9-.6-.6-.9-1.3-.9-2.1v-8.8c1.47-.17,2.72-.74,3.77-1.73s1.58-2.19,1.58-3.62c0-1.43-.52-2.64-1.57-3.62-1.05-.98-2.31-1.56-3.78-1.73V7.7c0-.8,.3-1.5,.9-2.1,.6-.6,1.3-.9,2.1-.9H11.85c.37-1.33,1.02-2.45,1.98-3.35C14.78,.45,15.92,0,17.25,0c1.33,0,2.48,.45,3.42,1.35,.95,.9,1.61,2.02,1.98,3.35h8.65c.8,0,1.5,.3,2.1,.9,.6,.6,.9,1.3,.9,2.1v8.65c1.33,.37,2.43,1.06,3.28,2.08,.85,1.02,1.28,2.19,1.28,3.52s-.42,2.45-1.28,3.35c-.85,.9-1.94,1.53-3.28,1.9v8.8c0,.8-.3,1.5-.9,2.1-.6,.6-1.3,.9-2.1,.9h-8.8c-.17-1.6-.76-2.89-1.77-3.88s-2.21-1.47-3.58-1.47-2.56,.49-3.58,1.47c-1.02,.98-1.61,2.27-1.77,3.88Zm-8.8-3h6.5c.83-2.03,2-3.43,3.5-4.2,1.5-.77,2.88-1.15,4.15-1.15s2.65,.38,4.15,1.15c1.5,.77,2.67,2.17,3.5,4.2h6.5v-11.75h2.25c.67,0,1.22-.22,1.65-.65,.43-.43,.65-.98,.65-1.65s-.22-1.22-.65-1.65c-.43-.43-.98-.65-1.65-.65h-2.25V7.7h-11.75v-2.4c0-.67-.22-1.22-.65-1.65-.43-.43-.98-.65-1.65-.65s-1.22,.22-1.65,.65c-.43,.43-.65,.98-.65,1.65v2.4H3v6.5c1.6,.6,2.89,1.6,3.88,3s1.48,2.95,1.48,4.65c0,1.7-.49,3.25-1.48,4.65s-2.28,2.4-3.88,3v6.5Z"/></svg>