<?xml version="1.0" encoding="UTF-8"?><svg id="Ebene_1" xmlns="http://www.w3.org/2000/svg" viewBox="0 0 36 41.95"><defs><style>.cls-1{fill:#cd2263;}</style></defs><path class="cls-1" d="M13.5,3c-.43,0-.79-.14-1.08-.43-.28-.28-.42-.64-.42-1.07s.14-.79,.42-1.08c.28-.28,.64-.42,1.08-.42h9c.43,0,.79,.14,1.08,.42,.28,.28,.42,.64,.42,1.08s-.14,.79-.42,1.07c-.28,.28-.64,.43-1.08,.43H13.5Zm4.5,22.35c.43,0,.79-.14,1.08-.42,.28-.28,.42-.64,.42-1.08V15.35c0-.43-.14-.79-.42-1.08-.28-.28-.64-.43-1.08-.43s-.79,.14-1.08,.43c-.28,.28-.42,.64-.42,1.08v8.5c0,.43,.14,.79,.42,1.08,.28,.28,.64,.42,1.08,.42Zm0,16.6c-2.47,0-4.79-.47-6.98-1.42-2.18-.95-4.09-2.24-5.72-3.88-1.63-1.63-2.93-3.54-3.88-5.72-.95-2.18-1.43-4.51-1.43-6.98s.47-4.79,1.43-6.98c.95-2.18,2.24-4.09,3.88-5.73s3.54-2.93,5.72-3.88c2.18-.95,4.51-1.43,6.98-1.43,2.23,0,4.33,.38,6.3,1.12,1.97,.75,3.72,1.79,5.25,3.12l1.55-1.55c.27-.27,.6-.4,1-.4s.75,.15,1.05,.45c.3,.3,.45,.65,.45,1.05s-.15,.75-.45,1.05l-1.5,1.5c1.2,1.33,2.22,2.95,3.08,4.85,.85,1.9,1.28,4.17,1.28,6.8,0,2.47-.48,4.79-1.42,6.97-.95,2.18-2.24,4.09-3.88,5.73-1.63,1.63-3.54,2.92-5.73,3.88-2.18,.95-4.51,1.42-6.98,1.42Zm0-3c4.17,0,7.71-1.46,10.62-4.38,2.92-2.92,4.38-6.46,4.38-10.62s-1.46-7.71-4.38-10.62c-2.92-2.92-6.46-4.38-10.62-4.38-4.17,0-7.71,1.46-10.62,4.38-2.92,2.92-4.38,6.46-4.38,10.63s1.46,7.71,4.38,10.62c2.92,2.92,6.46,4.38,10.62,4.38Z"/></svg>