<?xml version="1.0" encoding="UTF-8"?><svg id="Ebene_1" xmlns="http://www.w3.org/2000/svg" viewBox="0 0 39.4 30.2"><defs><style>.cls-1{fill:#cd2263;}</style></defs><path class="cls-1" d="M29.05,8.2L36.85,.45c.3-.3,.65-.45,1.05-.45s.75,.15,1.05,.45c.3,.3,.45,.65,.45,1.05s-.15,.75-.45,1.05l-8.8,8.85c-.3,.3-.65,.45-1.05,.45s-.75-.15-1.05-.45l-4.7-4.7c-.3-.3-.45-.65-.45-1.05,0-.4,.15-.75,.45-1.05,.3-.3,.65-.45,1.05-.45s.75,.15,1.05,.45l3.6,3.6Zm-27.55,.45c-.43,0-.79-.14-1.07-.42-.28-.28-.43-.64-.43-1.08s.14-.79,.43-1.07c.28-.28,.64-.43,1.07-.43h15c.43,0,.79,.14,1.08,.43,.28,.28,.42,.64,.42,1.07s-.14,.79-.42,1.08c-.28,.28-.64,.42-1.08,.42H1.5ZM30,25.25l-4.55,4.5c-.3,.27-.65,.41-1.05,.42-.4,.02-.75-.12-1.05-.42s-.45-.65-.45-1.05,.15-.75,.45-1.05l4.55-4.5-4.55-4.5c-.3-.3-.45-.65-.45-1.05,0-.4,.15-.75,.45-1.05s.65-.44,1.05-.42c.4,.02,.75,.16,1.05,.42l4.55,4.5,4.5-4.5c.3-.3,.65-.45,1.05-.45s.75,.15,1.05,.45c.3,.3,.45,.65,.45,1.05s-.15,.75-.45,1.05l-4.5,4.5,4.5,4.5c.3,.3,.45,.65,.45,1.05s-.15,.75-.45,1.05-.65,.45-1.05,.45-.75-.15-1.05-.45l-4.5-4.5Zm-28.5-.6c-.43,0-.79-.14-1.07-.42s-.43-.64-.43-1.08,.14-.79,.43-1.08c.28-.28,.64-.42,1.07-.42h15c.43,0,.79,.14,1.08,.42,.28,.28,.42,.64,.42,1.08s-.14,.79-.42,1.08c-.28,.28-.64,.42-1.08,.42H1.5Z"/></svg>